<svg width="28" height="19" viewBox="0 0 28 19" fill="none" xmlns="http://www.w3.org/2000/svg">
<path d="M26.5527 3.95516C26.4134 3.44102 26.1296 2.96995 25.7301 2.58952C25.3305 2.20909 24.8294 1.93278 24.2772 1.7885C22.2598 1.3335 14.19 1.3335 14.19 1.3335C14.19 1.3335 6.12025 1.3335 4.10281 1.83183C3.55065 1.97611 3.04949 2.25242 2.64996 2.63285C2.25042 3.01328 1.96666 3.48436 1.82733 3.9985C1.45811 5.88951 1.2775 7.80783 1.28778 9.72933C1.27462 11.6653 1.45524 13.5982 1.82733 15.5035C1.98093 16.0017 2.27106 16.4548 2.66966 16.8192C3.06827 17.1835 3.56188 17.4468 4.10281 17.5835C6.12025 18.0818 14.19 18.0818 14.19 18.0818C14.19 18.0818 22.2598 18.0818 24.2772 17.5835C24.8294 17.4392 25.3305 17.1629 25.7301 16.7825C26.1296 16.402 26.4134 15.931 26.5527 15.4168C26.9191 13.54 27.0997 11.6364 27.0923 9.72933C27.1054 7.79336 26.9248 5.86042 26.5527 3.95516V3.95516Z" stroke="#203562" stroke-width="1.5" stroke-linecap="round" stroke-linejoin="round"/>
<path d="M11.5518 13.2715L18.2961 9.72902L11.5518 6.18652V13.2715Z" stroke="#203562" stroke-width="1.4" stroke-linecap="round" stroke-linejoin="round"/>
</svg>
