<svg width="21" height="19" viewBox="0 0 21 19" fill="none" xmlns="http://www.w3.org/2000/svg">
<path fill-rule="evenodd" clip-rule="evenodd" d="M4.61538 5.66671C3.35067 5.67615 2.08568 5.67409 0.82088 5.66783C0.463513 5.66594 0.286459 5.77581 0.287111 6.13807C0.295028 10.1774 0.291954 14.2168 0.292886 18.2561C0.292979 18.4099 0.266528 18.5789 0.47916 18.6489C0.487263 18.6736 4.94602 18.672 4.95803 18.6475C5.19274 18.5662 5.14543 18.3766 5.14552 18.2128C5.14757 14.202 5.14394 10.191 5.1526 6.18013C5.15325 5.81616 5.01336 5.66371 4.61538 5.66671Z" fill="#203562"/>
<path fill-rule="evenodd" clip-rule="evenodd" d="M2.71981 0.25C1.37633 0.25 0.287109 1.22009 0.287109 2.41663C0.287109 3.61332 1.37633 4.58333 2.71981 4.58333C4.06338 4.58333 5.1526 3.61332 5.1526 2.41663C5.1526 1.22009 4.06338 0.25 2.71981 0.25Z" fill="#203562"/>
<path fill-rule="evenodd" clip-rule="evenodd" d="M20.9023 18.044C20.9052 15.9735 20.9171 13.903 20.8982 11.8327C20.8899 10.9258 20.8533 10.0166 20.6393 9.12405C20.2886 7.6607 19.4991 6.51822 17.9311 5.98548C16.8849 5.63009 15.7911 5.60721 14.6987 5.74498C13.781 5.86071 12.9356 6.17204 12.1654 6.7507C12.1654 6.54017 12.1646 6.40055 12.1656 6.26109C12.1679 5.94791 12.0043 5.80635 11.6672 5.80778C10.4691 5.81276 9.27106 5.8115 8.07291 5.80863C7.7431 5.80778 7.58489 5.92909 7.58535 6.25924C7.59167 10.2323 7.58932 14.2053 7.5895 18.1783C7.5895 18.3307 7.56699 18.4927 7.76498 18.5678C7.78587 18.5924 12.1113 18.6016 12.1111 18.5765C12.3948 18.463 12.3075 18.2235 12.308 18.0285C12.312 16.0689 12.2988 14.1093 12.3106 12.1498C12.3142 11.537 12.3396 10.918 12.6368 10.3474C12.9889 9.67132 13.7177 9.37839 14.7441 9.49826C15.4503 9.58065 15.9011 10.0065 16.0414 10.7485C16.0934 11.0226 16.1322 11.3028 16.1341 11.5805C16.1478 13.7359 16.1497 15.8914 16.1597 18.0469C16.1607 18.2459 16.0936 18.4809 16.3815 18.581C16.3716 18.6092 20.7269 18.5921 20.728 18.5647C20.9624 18.443 20.9021 18.2308 20.9023 18.044Z" fill="#203562"/>
</svg>
