<svg width="20" height="19" viewBox="0 0 20 19" fill="none" xmlns="http://www.w3.org/2000/svg">
<path d="M10.059 4.37695C8.7271 4.37695 7.44977 4.86412 6.50798 5.73129C5.5662 6.59846 5.03711 7.77459 5.03711 9.00095C5.03711 10.2273 5.5662 11.4034 6.50798 12.2706C7.44977 13.1378 8.7271 13.625 10.059 13.625C11.3909 13.625 12.6682 13.1378 13.61 12.2706C14.5518 11.4034 15.0809 10.2273 15.0809 9.00095C15.0809 7.77459 14.5518 6.59846 13.61 5.73129C12.6682 4.86412 11.3909 4.37695 10.059 4.37695ZM10.059 12.004C9.19372 12.004 8.3639 11.6875 7.75206 11.1241C7.14023 10.5607 6.7965 9.79666 6.7965 8.99995C6.7965 8.20324 7.14023 7.43916 7.75206 6.8758C8.3639 6.31245 9.19372 5.99595 10.059 5.99595C10.9243 5.99595 11.7541 6.31245 12.3659 6.8758C12.9777 7.43916 13.3215 8.20324 13.3215 8.99995C13.3215 9.79666 12.9777 10.5607 12.3659 11.1241C11.7541 11.6875 10.9243 12.004 10.059 12.004Z" fill="#203562"/>
<path d="M15.2792 5.28491C15.9257 5.28491 16.4499 4.80227 16.4499 4.20691C16.4499 3.61154 15.9257 3.12891 15.2792 3.12891C14.6326 3.12891 14.1084 3.61154 14.1084 4.20691C14.1084 4.80227 14.6326 5.28491 15.2792 5.28491Z" fill="#203562"/>
<path d="M19.3266 3.11088C19.0752 2.51306 18.691 1.97017 18.1986 1.51694C17.7061 1.06372 17.1164 0.710154 16.467 0.478883C15.7072 0.21624 14.9044 0.0742239 14.0929 0.0588827C13.0471 0.0168827 12.7158 0.00488281 10.0637 0.00488281C7.41158 0.00488281 7.07164 0.00488271 6.03447 0.0588827C5.22361 0.0734396 4.42143 0.215484 3.66254 0.478883C3.01302 0.709884 2.42311 1.06335 1.93066 1.51661C1.43821 1.96987 1.05411 2.51291 0.802981 3.11088C0.517682 3.8105 0.3638 4.54972 0.347928 5.29688C0.301228 6.25888 0.287109 6.56388 0.287109 9.00688C0.287109 11.4489 0.287109 11.7599 0.347928 12.7169C0.364219 13.4649 0.517351 14.2029 0.802981 14.9039C1.05481 15.5016 1.43929 16.0445 1.93186 16.4977C2.42442 16.9509 3.01424 17.3045 3.66363 17.5359C4.42107 17.8091 5.2236 17.9613 6.03664 17.9859C7.0825 18.0279 7.41375 18.0409 10.0659 18.0409C12.718 18.0409 13.0579 18.0409 14.0951 17.9859C14.9065 17.9707 15.7092 17.829 16.4692 17.5669C17.1184 17.3351 17.708 16.9812 18.2003 16.5279C18.6927 16.0745 19.077 15.5316 19.3288 14.9339C19.6144 14.2339 19.7675 13.4959 19.7838 12.7479C19.8305 11.7859 19.8446 11.4809 19.8446 9.03788C19.8446 6.59488 19.8446 6.28488 19.7838 5.32788C19.7712 4.57016 19.6165 3.82013 19.3266 3.11088ZM18.0038 12.6429C17.9968 13.2192 17.8825 13.7901 17.666 14.3309C17.5029 14.7198 17.2532 15.0729 16.933 15.3676C16.6128 15.6622 16.2291 15.8919 15.8067 16.0419C15.2259 16.2403 14.6125 16.3455 13.993 16.3529C12.9613 16.3969 12.6702 16.4079 10.0246 16.4079C7.37682 16.4079 7.1064 16.4079 6.0551 16.3529C5.43598 16.3459 4.82279 16.2407 4.24249 16.0419C3.81859 15.8929 3.43339 15.6636 3.1118 15.3688C2.79021 15.0741 2.53939 14.7205 2.37558 14.3309C2.16211 13.7959 2.04793 13.2317 2.03782 12.6619C1.99112 11.7119 1.98026 11.4439 1.98026 9.00788C1.98026 6.57088 1.98026 6.32188 2.03782 5.35288C2.04484 4.77691 2.15908 4.2063 2.37558 3.66588C2.70682 2.87688 3.3856 2.25588 4.24249 1.95388C4.82308 1.75602 5.43608 1.65085 6.0551 1.64288C7.08793 1.59988 7.37791 1.58788 10.0246 1.58788C12.6713 1.58788 12.9428 1.58788 13.993 1.64288C14.6125 1.64974 15.2261 1.75495 15.8067 1.95388C16.2291 2.10416 16.6127 2.33409 16.9329 2.62891C17.2531 2.92374 17.5028 3.27695 17.666 3.66588C17.8795 4.20083 17.9937 4.76504 18.0038 5.33488C18.0505 6.28588 18.0624 6.55288 18.0624 8.98988C18.0624 11.4259 18.0624 11.6879 18.0157 12.6439H18.0038V12.6429Z" fill="#203562"/>
</svg>
